<mxfile host="app.diagrams.net" agent="Mozilla/5.0 (Windows NT 10.0; Win64; x64) AppleWebKit/537.36 (KHTML, like Gecko) Chrome/133.0.0.0 Safari/537.36" version="26.0.10">
  <diagram name="Page-1" id="r0GIOrc-Bmw97ACneMn5">
    <mxGraphModel dx="1050" dy="522" grid="1" gridSize="10" guides="1" tooltips="1" connect="1" arrows="1" fold="1" page="1" pageScale="1" pageWidth="850" pageHeight="1100" math="0" shadow="0">
      <root>
        <mxCell id="0" />
        <mxCell id="1" parent="0" />
        <mxCell id="vo2F4Xbn49CUv_q-Zh44-4" value="" style="edgeStyle=orthogonalEdgeStyle;rounded=0;orthogonalLoop=1;jettySize=auto;html=1;" edge="1" parent="1" source="vo2F4Xbn49CUv_q-Zh44-1" target="vo2F4Xbn49CUv_q-Zh44-3">
          <mxGeometry relative="1" as="geometry" />
        </mxCell>
        <mxCell id="vo2F4Xbn49CUv_q-Zh44-1" value="start" style="rounded=0;whiteSpace=wrap;html=1;" vertex="1" parent="1">
          <mxGeometry x="340" y="40" width="120" height="60" as="geometry" />
        </mxCell>
        <mxCell id="vo2F4Xbn49CUv_q-Zh44-8" value="" style="edgeStyle=orthogonalEdgeStyle;rounded=0;orthogonalLoop=1;jettySize=auto;html=1;" edge="1" parent="1" source="vo2F4Xbn49CUv_q-Zh44-3" target="vo2F4Xbn49CUv_q-Zh44-5">
          <mxGeometry relative="1" as="geometry" />
        </mxCell>
        <mxCell id="vo2F4Xbn49CUv_q-Zh44-3" value="generate random word" style="rounded=1;whiteSpace=wrap;html=1;" vertex="1" parent="1">
          <mxGeometry x="340" y="120" width="120" height="30" as="geometry" />
        </mxCell>
        <mxCell id="vo2F4Xbn49CUv_q-Zh44-9" value="" style="edgeStyle=orthogonalEdgeStyle;rounded=0;orthogonalLoop=1;jettySize=auto;html=1;" edge="1" parent="1" source="vo2F4Xbn49CUv_q-Zh44-5" target="vo2F4Xbn49CUv_q-Zh44-6">
          <mxGeometry relative="1" as="geometry" />
        </mxCell>
        <mxCell id="vo2F4Xbn49CUv_q-Zh44-5" value="generate as many blanks as letters in word" style="rounded=1;whiteSpace=wrap;html=1;" vertex="1" parent="1">
          <mxGeometry x="340" y="170" width="120" height="40" as="geometry" />
        </mxCell>
        <mxCell id="vo2F4Xbn49CUv_q-Zh44-6" value="ask user to guess a letter" style="rounded=1;whiteSpace=wrap;html=1;" vertex="1" parent="1">
          <mxGeometry x="340" y="230" width="120" height="30" as="geometry" />
        </mxCell>
        <mxCell id="vo2F4Xbn49CUv_q-Zh44-12" value="yes" style="edgeStyle=orthogonalEdgeStyle;rounded=0;orthogonalLoop=1;jettySize=auto;html=1;" edge="1" parent="1" source="vo2F4Xbn49CUv_q-Zh44-10" target="vo2F4Xbn49CUv_q-Zh44-11">
          <mxGeometry relative="1" as="geometry">
            <Array as="points">
              <mxPoint x="250" y="330" />
            </Array>
          </mxGeometry>
        </mxCell>
        <mxCell id="vo2F4Xbn49CUv_q-Zh44-15" value="no" style="edgeStyle=orthogonalEdgeStyle;rounded=0;orthogonalLoop=1;jettySize=auto;html=1;" edge="1" parent="1" source="vo2F4Xbn49CUv_q-Zh44-10" target="vo2F4Xbn49CUv_q-Zh44-13">
          <mxGeometry relative="1" as="geometry">
            <Array as="points">
              <mxPoint x="560" y="330" />
            </Array>
          </mxGeometry>
        </mxCell>
        <mxCell id="vo2F4Xbn49CUv_q-Zh44-10" value="is the letter in the word" style="rhombus;whiteSpace=wrap;html=1;" vertex="1" parent="1">
          <mxGeometry x="345" y="290" width="110" height="80" as="geometry" />
        </mxCell>
        <mxCell id="vo2F4Xbn49CUv_q-Zh44-11" value="replace the blank with letter" style="rounded=1;whiteSpace=wrap;html=1;" vertex="1" parent="1">
          <mxGeometry x="200" y="360" width="90" height="40" as="geometry" />
        </mxCell>
        <mxCell id="vo2F4Xbn49CUv_q-Zh44-18" value="" style="edgeStyle=orthogonalEdgeStyle;rounded=0;orthogonalLoop=1;jettySize=auto;html=1;" edge="1" parent="1" source="vo2F4Xbn49CUv_q-Zh44-13" target="vo2F4Xbn49CUv_q-Zh44-17">
          <mxGeometry relative="1" as="geometry" />
        </mxCell>
        <mxCell id="vo2F4Xbn49CUv_q-Zh44-13" value="lose a life" style="rounded=1;whiteSpace=wrap;html=1;" vertex="1" parent="1">
          <mxGeometry x="500" y="360" width="100" height="40" as="geometry" />
        </mxCell>
        <mxCell id="vo2F4Xbn49CUv_q-Zh44-16" value="no" style="edgeStyle=orthogonalEdgeStyle;rounded=0;orthogonalLoop=1;jettySize=auto;html=1;entryX=0;entryY=0.5;entryDx=0;entryDy=0;" edge="1" parent="1" source="vo2F4Xbn49CUv_q-Zh44-14" target="vo2F4Xbn49CUv_q-Zh44-6">
          <mxGeometry relative="1" as="geometry">
            <Array as="points">
              <mxPoint x="100" y="450" />
              <mxPoint x="100" y="245" />
            </Array>
          </mxGeometry>
        </mxCell>
        <mxCell id="vo2F4Xbn49CUv_q-Zh44-21" style="edgeStyle=orthogonalEdgeStyle;rounded=0;orthogonalLoop=1;jettySize=auto;html=1;entryX=0;entryY=0.5;entryDx=0;entryDy=0;" edge="1" parent="1" source="vo2F4Xbn49CUv_q-Zh44-14" target="vo2F4Xbn49CUv_q-Zh44-20">
          <mxGeometry relative="1" as="geometry">
            <Array as="points">
              <mxPoint x="240" y="550" />
            </Array>
          </mxGeometry>
        </mxCell>
        <mxCell id="vo2F4Xbn49CUv_q-Zh44-22" value="yes" style="edgeLabel;html=1;align=center;verticalAlign=middle;resizable=0;points=[];" vertex="1" connectable="0" parent="vo2F4Xbn49CUv_q-Zh44-21">
          <mxGeometry x="-0.1886" relative="1" as="geometry">
            <mxPoint as="offset" />
          </mxGeometry>
        </mxCell>
        <mxCell id="vo2F4Xbn49CUv_q-Zh44-14" value="are all the blanks filled" style="rhombus;whiteSpace=wrap;html=1;" vertex="1" parent="1">
          <mxGeometry x="200" y="410" width="80" height="80" as="geometry" />
        </mxCell>
        <mxCell id="vo2F4Xbn49CUv_q-Zh44-19" value="no" style="edgeStyle=orthogonalEdgeStyle;rounded=0;orthogonalLoop=1;jettySize=auto;html=1;entryX=1;entryY=0.5;entryDx=0;entryDy=0;" edge="1" parent="1" source="vo2F4Xbn49CUv_q-Zh44-17" target="vo2F4Xbn49CUv_q-Zh44-6">
          <mxGeometry relative="1" as="geometry">
            <Array as="points">
              <mxPoint x="680" y="455" />
              <mxPoint x="680" y="245" />
            </Array>
          </mxGeometry>
        </mxCell>
        <mxCell id="vo2F4Xbn49CUv_q-Zh44-23" style="edgeStyle=orthogonalEdgeStyle;rounded=0;orthogonalLoop=1;jettySize=auto;html=1;entryX=1;entryY=0.5;entryDx=0;entryDy=0;" edge="1" parent="1" source="vo2F4Xbn49CUv_q-Zh44-17" target="vo2F4Xbn49CUv_q-Zh44-20">
          <mxGeometry relative="1" as="geometry">
            <Array as="points">
              <mxPoint x="550" y="550" />
            </Array>
          </mxGeometry>
        </mxCell>
        <mxCell id="vo2F4Xbn49CUv_q-Zh44-24" value="yes" style="edgeLabel;html=1;align=center;verticalAlign=middle;resizable=0;points=[];" vertex="1" connectable="0" parent="vo2F4Xbn49CUv_q-Zh44-23">
          <mxGeometry x="-0.1035" relative="1" as="geometry">
            <mxPoint as="offset" />
          </mxGeometry>
        </mxCell>
        <mxCell id="vo2F4Xbn49CUv_q-Zh44-17" value="have you run out of lives" style="rhombus;whiteSpace=wrap;html=1;" vertex="1" parent="1">
          <mxGeometry x="510" y="420" width="80" height="70" as="geometry" />
        </mxCell>
        <mxCell id="vo2F4Xbn49CUv_q-Zh44-20" value="end game" style="rounded=0;whiteSpace=wrap;html=1;" vertex="1" parent="1">
          <mxGeometry x="320" y="520" width="120" height="60" as="geometry" />
        </mxCell>
      </root>
    </mxGraphModel>
  </diagram>
</mxfile>
